<?xml version="1.0" standalone="no"?>
<!DOCTYPE svg PUBLIC "-//W3C//DTD SVG 20010904//EN"
 "http://www.w3.org/TR/2001/REC-SVG-20010904/DTD/svg10.dtd">
<svg version="1.0" xmlns="http://www.w3.org/2000/svg"
 width="3600.000000pt" height="3600.000000pt" viewBox="0 0 3600.000000 3600.000000"
 preserveAspectRatio="xMidYMid meet">

<g transform="translate(0.000000,3600.000000) scale(0.100000,-0.100000)"
fill="#000000" stroke="none">
<path d="M1662 35913 c-536 -952 -1121 -2157 -1576 -3245 l-87 -207 3 -138 3
-138 34 90 c63 164 356 855 489 1150 363 809 742 1573 1137 2290 73 132 137
250 144 263 11 22 11 22 -43 22 l-55 0 -49 -87z"/>
<path d="M13449 35973 c-53 -137 -174 -481 -255 -723 -86 -258 -109 -313 -177
-440 -358 -658 -839 -1620 -1142 -2285 -954 -2093 -1560 -3983 -1859 -5803
l-42 -254 -169 147 c-94 81 -250 215 -348 298 l-179 151 7 146 c92 2104 588
4285 1486 6533 204 511 452 1073 669 1522 125 257 180 375 176 375 -2 0 -35
-53 -74 -117 -328 -549 -715 -1384 -1042 -2248 -466 -1229 -862 -2645 -1070
-3824 -7 -42 -32 -106 -71 -182 -155 -311 -441 -978 -614 -1435 l-99 -261 -83
54 c-173 113 -362 186 -553 212 -81 12 -392 32 -398 27 -2 -2 50 -16 115 -31
289 -65 493 -130 655 -209 115 -55 228 -127 228 -144 0 -7 -36 -115 -79 -240
-582 -1676 -978 -3614 -1160 -5672 -73 -819 -121 -1810 -121 -2484 0 -154 -2
-277 -4 -275 -11 11 -114 720 -160 1101 -167 1369 -216 2810 -141 4133 106
1851 433 3654 976 5389 33 104 58 191 56 193 -4 4 -19 -34 -133 -342 -324
-869 -606 -1963 -778 -3015 -75 -460 -112 -734 -171 -1290 -34 -314 -34 -316
-110 -605 -315 -1200 -556 -2501 -689 -3710 -62 -558 -92 -945 -128 -1640 -18
-340 -18 -1779 0 -2120 50 -963 119 -1754 232 -2660 43 -340 45 -354 115 -854
25 -178 44 -328 42 -334 -8 -24 -236 848 -376 1440 -515 2165 -824 4278 -936
6388 -36 683 -40 889 -40 1910 0 1047 7 1349 45 2110 142 2802 623 5503 1584
8890 58 203 104 371 102 372 -1 1 -61 -176 -134 -395 -889 -2692 -1405 -5208
-1621 -7918 -25 -310 -37 -412 -65 -551 -57 -278 -161 -890 -225 -1313 -447
-2949 -544 -6346 -286 -9975 13 -186 23 -340 22 -342 -2 -1 -24 80 -50 180
-366 1413 -685 3656 -807 5667 -49 812 -70 1751 -52 2315 5 171 9 311 7 313
-3 4 -65 -321 -114 -598 -719 -4110 -532 -8576 538 -12847 675 -2692 1699
-5187 2734 -6655 98 -141 316 -420 384 -495 32 -35 45 -65 88 -200 27 -87 75
-232 107 -323 31 -91 55 -166 54 -167 -2 -2 -77 88 -167 199 -1255 1544 -2335
3283 -3227 5193 -1550 3321 -2463 7051 -2716 11100 -37 579 -54 1021 -67 1730
-35 1906 94 4069 367 6134 19 145 32 266 29 269 -3 3 -5 0 -5 -7 0 -7 -22
-137 -49 -289 -97 -540 -199 -1260 -262 -1847 -18 -165 -40 -319 -54 -375 -48
-192 -138 -582 -191 -835 -624 -2964 -806 -6330 -518 -9605 13 -157 27 -310
29 -340 3 -30 3 -50 1 -45 -9 18 -113 521 -165 795 -98 518 -186 1063 -260
1615 -22 165 -44 332 -50 370 -6 49 -8 -54 -7 -355 l2 -425 52 -320 c208
-1277 421 -2241 696 -3152 236 -778 480 -1405 772 -1983 147 -290 311 -576
299 -520 -106 500 -278 1398 -359 1870 -269 1571 -391 2967 -372 4265 9 607
43 1266 88 1695 l12 115 8 -75 c304 -2908 883 -5450 1809 -7938 323 -868 667
-1658 1099 -2527 523 -1050 1036 -1930 1650 -2830 75 -110 139 -204 142 -210
4 -7 -64 -11 -195 -12 -506 -4 -1009 -93 -1347 -238 -129 -55 -633 -345 -935
-537 -550 -351 -1017 -766 -1431 -1273 -116 -141 -308 -397 -348 -463 -5 -9 7
-12 53 -12 l59 0 48 68 c343 486 818 971 1310 1340 315 236 912 602 1229 753
255 122 584 202 980 239 146 14 591 25 635 16 30 -6 44 -20 99 -99 257 -368
724 -969 1090 -1402 135 -160 412 -478 458 -525 l24 -25 -19 50 c-11 28 -39
97 -62 155 -76 190 -157 413 -250 686 -134 396 -318 999 -307 1010 12 12 528
-138 817 -238 209 -72 473 -170 486 -180 6 -4 14 -45 18 -91 20 -247 124
-1120 189 -1592 l22 -160 308 -3 c276 -2 307 -1 307 14 0 8 -16 109 -35 222
-114 686 -227 1490 -300 2147 -96 868 -160 1954 -123 2078 24 79 122 157 278
219 36 14 80 29 99 33 l34 7 -7 -338 c-16 -758 32 -1655 130 -2429 77 -612
170 -1113 320 -1728 l56 -227 2377 0 2376 0 49 243 c79 390 181 858 261 1197
75 316 183 742 184 727 1 -5 -15 -92 -34 -195 -47 -254 -89 -532 -131 -861
-36 -283 -124 -1062 -124 -1093 0 -17 381 -18 7871 -18 l7871 0 327 223 c1206
825 1918 1243 3081 1812 887 433 1450 687 2075 936 l220 87 3 2355 2 2354
-117 46 c-178 69 -381 141 -667 236 l-259 87 2 270 c1 148 -3 403 -9 567 l-12
297 42 125 42 125 51 -46 c249 -220 488 -377 802 -525 l120 -57 3 10666 2
10667 -65 400 c-279 1710 -686 3456 -1193 5115 l-78 255 -47 3 c-26 2 -47 -1
-47 -6 0 -5 51 -184 114 -398 63 -214 153 -531 200 -704 l85 -315 41 -485 c88
-1064 156 -2144 195 -3125 34 -856 40 -1196 39 -2220 0 -1023 -6 -1356 -39
-2135 -180 -4189 -913 -8113 -2243 -12007 -64 -188 -118 -340 -120 -339 -1 2
14 206 33 455 230 2959 327 4891 342 6791 5 670 -3 1627 -13 1595 -2 -5 -15
-116 -29 -245 -285 -2588 -848 -5570 -1576 -8345 -1334 -5080 -3259 -9815
-5617 -13818 l-170 -288 -142 -126 c-163 -145 -165 -164 20 176 231 424 510
1001 760 1571 1114 2539 1936 5531 2215 8060 l14 135 117 260 c1385 3101 2371
6722 2558 9395 26 366 28 587 17 1455 -17 1278 -46 1985 -126 3065 -33 441
-112 1370 -117 1375 -2 2 -21 -120 -41 -273 -269 -1981 -642 -4110 -1046
-5974 -505 -2329 -1126 -4546 -1794 -6408 -81 -225 -156 -426 -157 -419 0 3
40 244 90 537 312 1844 539 3790 685 5872 14 206 16 220 55 335 173 509 391
1319 545 2020 561 2556 803 5710 624 8135 -78 1060 -220 1896 -421 2473 -43
124 -57 148 -33 57 180 -670 317 -1867 367 -3180 15 -417 15 -1706 0 -2095
-48 -1188 -120 -2072 -248 -3045 -33 -251 -91 -655 -97 -674 -2 -4 -22 142
-46 325 -352 2751 -726 4945 -1126 6613 -19 82 -34 151 -31 153 5 5 611 248
908 363 119 47 215 86 213 88 -2 2 -83 -19 -182 -47 -195 -55 -474 -150 -767
-260 -104 -39 -191 -69 -193 -67 -2 2 -33 118 -69 257 -358 1400 -757 2541
-1220 3489 -243 495 -472 892 -708 1224 -39 56 -84 134 -102 180 -18 44 -33
77 -33 71 0 -5 15 -68 34 -140 295 -1098 552 -2809 669 -4445 24 -332 66
-1097 66 -1199 l0 -46 -126 -63 c-70 -35 -130 -60 -134 -55 -4 4 -44 137 -89
295 -355 1242 -868 2619 -1509 4048 -255 570 -407 891 -730 1543 l-266 537
-453 0 c-249 0 -453 -3 -453 -7 0 -3 47 -97 104 -207 120 -232 356 -718 493
-1016 704 -1525 1279 -3088 1771 -4815 121 -424 235 -846 230 -850 -2 -1 -64
-35 -138 -75 -74 -40 -169 -92 -210 -115 -41 -24 -210 -118 -375 -210 -748
-418 -1525 -885 -2290 -1375 -266 -170 -706 -463 -1367 -908 -377 -255 -757
-487 -1533 -938 -845 -492 -1061 -589 -1398 -634 -236 -31 -562 7 -874 100
-53 16 -99 28 -101 26 -9 -9 273 -146 397 -193 264 -100 565 -145 814 -124
372 32 670 155 1138 468 l105 71 -63 -96 c-107 -159 -200 -365 -217 -482 -7
-42 -4 -39 47 55 258 481 595 839 1065 1128 394 244 934 439 1522 551 207 40
205 52 -9 43 -347 -16 -741 -123 -1161 -316 -84 -39 -150 -67 -144 -62 66 61
952 680 1429 998 966 644 1871 1201 2715 1670 229 128 652 353 662 353 20 0
308 -1224 463 -1970 144 -694 403 -2102 393 -2131 -2 -4 -68 29 -148 73 -504
281 -1126 534 -1690 688 -1112 304 -2136 304 -3024 0 -413 -141 -734 -312
-1076 -573 -171 -131 -504 -437 -476 -437 5 0 37 11 70 24 58 23 95 29 160 27
28 -1 25 -5 -70 -103 -112 -116 -149 -165 -204 -276 -36 -72 -80 -198 -80
-227 0 -7 60 46 133 119 117 118 142 138 219 176 47 23 91 41 96 39 6 -2 -12
-40 -39 -84 -110 -177 -210 -411 -242 -566 -22 -105 -33 -254 -19 -263 6 -3
25 19 43 51 196 344 521 739 820 997 102 88 291 227 374 277 l40 23 -25 -31
c-14 -17 -47 -57 -73 -89 -207 -253 -343 -559 -429 -969 -35 -168 -47 -362
-55 -905 -4 -284 -1 -415 11 -590 72 -975 296 -1961 626 -2750 95 -228 228
-486 325 -630 l93 -140 -63 0 c-175 0 -500 -32 -661 -66 -73 -15 -129 -32
-109 -33 6 -1 89 -8 185 -16 236 -19 606 -41 1135 -65 1283 -59 1817 -102
2435 -194 91 -13 201 -27 246 -31 91 -7 262 8 350 30 90 24 213 87 273 141 52
47 141 157 141 174 0 12 -43 -2 -150 -50 -124 -57 -174 -69 -305 -77 l-110 -6
25 30 c187 228 239 306 336 508 71 145 127 292 116 299 -4 2 -57 -4 -117 -14
-315 -55 -594 -44 -816 30 -168 57 -249 127 -249 215 0 100 91 164 292 205
127 26 303 37 452 28 176 -10 284 -36 435 -105 107 -48 106 -49 130 60 157
704 145 1584 -34 2431 -37 174 -106 444 -150 583 -13 43 -45 152 -70 243 -59
208 -131 392 -254 645 -215 443 -394 708 -660 978 -69 70 -122 127 -118 127
13 0 83 -37 242 -128 594 -339 1159 -823 1631 -1397 127 -155 220 -281 507
-693 82 -118 186 -324 226 -449 100 -309 120 -654 61 -1025 -50 -309 -171
-687 -349 -1092 -34 -77 -60 -141 -58 -142 2 -2 46 47 99 109 52 61 164 189
248 282 290 323 437 504 552 679 138 209 236 413 309 638 22 70 50 139 61 153
32 41 70 32 144 -35 22 -20 46 -39 52 -41 9 -3 8 -71 -3 -269 -78 -1398 -278
-2723 -616 -4084 -38 -153 -68 -281 -65 -283 5 -5 122 191 216 362 84 152 264
517 343 695 77 174 257 615 257 631 0 7 2 10 5 7 8 -8 -51 -708 -115 -1373
-101 -1030 -243 -2209 -355 -2940 -25 -159 -63 -411 -85 -560 -124 -828 -340
-2005 -534 -2907 l-44 -203 -74 -69 c-496 -463 -1278 -1071 -2035 -1580 l-191
-129 -424 22 c-2159 110 -3615 126 -5122 56 -1834 -86 -3749 -335 -5418 -706
-148 -32 -276 -59 -286 -59 -10 0 -69 32 -132 72 -256 159 -738 428 -1235 688
-855 447 -1289 700 -1700 989 -550 386 -1041 839 -1397 1287 -656 825 -973
1729 -1047 2989 -17 288 -21 386 -31 825 -40 1719 -162 2813 -486 4365 -52
245 -64 320 -59 360 3 28 26 178 51 335 218 1389 600 2755 1156 4142 61 153
114 275 118 273 4 -2 10 -34 14 -70 10 -98 72 -467 112 -668 20 -98 34 -180
32 -181 -1 -1 -47 -26 -101 -56 -53 -29 -95 -55 -93 -57 2 -3 50 8 106 22 55
15 103 26 104 24 2 -2 28 -103 59 -224 l54 -220 -56 -64 c-722 -822 -1155
-1829 -1177 -2741 l-4 -195 20 40 c11 22 38 89 61 148 66 175 118 212 205 149
68 -50 101 -93 480 -639 101 -145 221 -310 266 -366 94 -116 308 -350 315
-344 2 3 -27 99 -66 213 -231 692 -281 1331 -150 1909 206 903 859 1619 1749
1918 96 32 318 87 351 87 8 0 -8 -19 -36 -42 -378 -319 -778 -927 -958 -1458
-112 -329 -211 -853 -237 -1255 -53 -825 127 -1798 507 -2750 190 -477 304
-670 519 -882 65 -64 80 -83 66 -87 -65 -20 -199 -38 -324 -43 -225 -9 -323
12 -570 122 -152 67 -228 83 -324 67 -64 -11 -170 -54 -209 -86 -19 -16 -19
-16 10 -9 17 4 73 7 125 7 157 -1 280 -42 500 -169 164 -93 222 -110 390 -109
207 1 367 40 675 166 1046 428 1759 653 2165 685 l85 6 -55 26 c-44 20 -75 26
-160 29 l-106 4 37 108 c44 126 104 359 95 367 -3 4 -25 0 -48 -7 -192 -59
-410 -52 -568 19 -117 52 -148 158 -68 240 42 43 85 64 194 95 203 58 388 70
493 32 25 -9 48 -13 52 -9 31 33 47 1449 21 1833 -43 620 -114 1104 -228 1550
-45 173 -148 482 -212 630 -27 63 -61 152 -76 196 -15 45 -56 132 -91 195 -36
62 -63 114 -62 116 6 5 211 -136 446 -306 124 -89 233 -167 244 -172 17 -10
18 -8 12 13 -12 41 -56 110 -136 215 -43 57 -83 112 -89 123 -13 25 -5 57 21
86 19 20 19 21 -3 41 -13 11 -75 58 -138 103 -123 88 -190 147 -190 166 0 27
122 33 195 10 88 -29 203 -45 367 -52 149 -7 160 -9 169 -28 5 -12 27 -95 49
-186 58 -242 151 -572 236 -838 79 -246 194 -566 201 -558 2 2 22 111 44 242
289 1728 729 3124 1448 4598 206 422 398 777 1246 2306 194 349 437 788 540
975 308 556 806 1475 1015 1871 l195 371 3 -71 c10 -208 -50 -794 -124 -1226
-198 -1152 -519 -2316 -1253 -4550 l-139 -425 63 67 c584 625 1591 2569 2662
5143 627 1507 1367 3490 1803 4834 51 157 94 291 97 298 4 10 -10 13 -61 13
l-65 0 -72 -222 c-160 -497 -509 -1488 -777 -2208 -774 -2074 -1582 -3979
-2341 -5515 -272 -550 -443 -876 -651 -1240 -133 -231 -337 -566 -328 -535 3
8 84 251 181 540 443 1321 731 2353 932 3341 l46 227 280 623 c835 1853 1266
2873 1656 3919 169 451 373 1034 373 1062 0 5 -126 8 -279 8 l-279 0 -194
-242 c-1557 -1944 -2803 -4084 -4023 -6905 -27 -62 -50 -112 -51 -110 -4 4
259 1093 336 1392 301 1170 626 2057 1102 3010 82 165 145 296 140 290 -79
-82 -466 -568 -661 -829 -1887 -2530 -3083 -5615 -3316 -8556 -8 -107 -18
-224 -22 -260 l-6 -65 -14 65 c-192 904 -352 2118 -413 3135 -50 841 -51 1803
-5 2615 124 2149 547 4284 1231 6212 46 130 84 239 84 242 0 3 -26 6 -57 6
l-58 0 -38 -108 c-21 -59 -83 -235 -136 -392 -86 -249 -110 -308 -193 -465
-438 -828 -896 -1863 -1210 -2735 -415 -1152 -715 -2280 -958 -3605 l-48 -260
-1 125 c-2 304 31 1018 70 1510 164 2074 625 4239 1222 5743 l75 187 -59 0
c-56 0 -60 -2 -70 -27z m13781 -6036 c29 -76 51 -140 49 -141 -10 -9 -91 -47
-94 -44 -5 5 -18 333 -12 328 2 -3 28 -67 57 -143z m-13741 -197 c-115 -1802
-16 -3657 292 -5423 42 -243 131 -695 173 -882 14 -60 24 -111 22 -112 -2 -2
-59 25 -127 60 -208 106 -349 199 -824 545 -132 96 -366 258 -520 360 -473
314 -520 352 -1185 962 -217 199 -515 471 -661 603 l-266 242 27 80 c81 236
276 735 425 1085 216 507 399 905 736 1595 361 740 568 1146 569 1114 0 -14
-7 -122 -15 -240 -64 -938 -64 -1994 1 -2844 65 -859 191 -1596 355 -2071 69
-199 65 -208 72 167 39 1988 331 3616 879 4897 34 78 62 141 63 140 1 -2 -6
-127 -16 -278z m13861 -130 c443 -1226 776 -2529 979 -3835 106 -681 171
-1307 221 -2145 10 -175 32 -1012 26 -1017 -2 -2 -32 36 -67 84 -233 322 -548
691 -879 1027 -188 191 -530 522 -636 616 l-51 46 25 182 c22 156 28 182 41
177 72 -29 141 -54 141 -51 0 2 -30 23 -67 47 -36 24 -70 47 -75 50 -5 3 0 79
11 175 88 747 146 1584 171 2479 13 472 16 1461 6 1895 l-7 335 58 26 c32 14
59 25 60 25 1 -1 21 -53 43 -116z m-266 -645 l6 -540 -45 195 c-24 107 -81
339 -126 515 -45 176 -83 331 -85 345 -4 23 4 29 113 81 l118 55 7 -55 c3 -31
9 -299 12 -596z m-17689 -2114 c79 -66 519 -445 552 -475 10 -9 6 -66 -21
-276 -60 -462 -125 -1223 -126 -1465 0 -39 -13 -132 -30 -210 -16 -77 -47
-234 -67 -349 l-38 -209 -70 -32 c-38 -18 -71 -32 -72 -31 -5 4 -75 418 -102
606 -94 645 -138 1236 -148 1970 -6 467 -2 567 20 553 7 -3 53 -41 102 -82z
m1255 -1106 c345 -312 1027 -933 1140 -1040 53 -49 164 -153 248 -229 84 -76
152 -140 152 -141 0 -2 -51 14 -112 35 -189 64 -263 75 -508 74 -227 0 -330
-14 -475 -63 l-60 -20 105 7 c472 30 849 -28 1157 -180 92 -45 112 -60 200
-152 54 -55 145 -157 202 -226 57 -69 127 -149 155 -178 l51 -53 -155 80
c-587 304 -1155 444 -1790 445 -351 0 -592 -30 -895 -109 -71 -19 -157 -43
-189 -55 -33 -11 -61 -18 -64 -15 -3 2 10 78 27 167 80 403 213 938 327 1313
55 179 183 573 191 588 6 10 17 1 293 -248z m15818 -815 c60 -10 293 -82 320
-99 8 -5 23 -69 38 -162 13 -85 26 -167 29 -182 4 -25 -6 -18 -94 60 -54 48
-175 153 -269 233 -94 80 -171 148 -171 153 -1 10 73 9 147 -3z m-4147 -606
c188 -56 340 -201 476 -454 79 -148 109 -254 119 -420 15 -243 -59 -551 -187
-776 -75 -132 -236 -281 -385 -357 -311 -157 -685 -82 -881 178 -233 309 -267
819 -82 1232 119 265 413 531 659 597 75 20 213 20 281 0z m-12285 -611 c-57
-49 -150 -130 -206 -182 l-102 -95 7 50 c18 128 44 287 49 291 8 8 146 20 254
22 l103 1 -105 -87z m-407 -95 c-10 -73 -19 -143 -19 -155 0 -56 -18 -13 -39
95 -12 64 -25 127 -28 139 -4 18 2 23 44 36 26 8 51 15 54 16 3 1 -2 -59 -12
-131z m13797 -554 c32 -21 54 -64 54 -105 0 -40 -65 -109 -103 -109 -60 0
-118 90 -96 148 27 72 91 101 145 66z m-11950 -734 c120 -59 240 -219 292
-392 71 -230 42 -607 -69 -896 -95 -249 -269 -372 -529 -372 -163 0 -305 53
-401 150 -193 193 -230 616 -85 983 45 115 100 205 178 293 222 250 425 327
614 234z m758 -892 c23 -32 20 -94 -4 -118 -24 -24 -72 -26 -94 -4 -30 30 -32
97 -4 131 18 22 85 16 102 -9z m-4331 -2123 c148 -709 274 -1547 346 -2305 60
-621 85 -1084 101 -1885 18 -866 54 -1291 154 -1799 20 -99 34 -182 31 -184
-5 -5 -109 61 -740 468 -269 173 -536 344 -591 380 l-102 64 -8 275 c-5 152
-8 584 -8 961 2 706 14 1096 54 1708 30 448 86 1063 99 1089 4 7 26 -85 49
-205 62 -310 143 -681 223 -1022 82 -343 199 -802 208 -812 3 -4 6 372 7 835
0 1026 22 1505 104 2311 17 159 30 291 30 294 0 25 13 -29 43 -173z m-448
-5632 c149 -94 465 -297 704 -450 l434 -278 38 -127 c153 -508 393 -977 722
-1411 l97 -128 0 -362 c0 -606 53 -1195 160 -1789 l19 -106 -64 -254 c-170
-678 -384 -1286 -710 -2018 l-122 -275 -189 -95 c-548 -277 -702 -422 -754
-715 -18 -102 -23 -333 -11 -525 23 -373 63 -448 258 -487 l79 -15 13 -292
c29 -694 80 -1453 158 -2329 l6 -68 -24 10 c-13 5 -82 31 -154 59 -307 118
-741 256 -1015 322 -74 18 -139 36 -143 40 -11 10 -101 345 -197 735 -455
1850 -760 3921 -864 5860 -31 566 -39 884 -39 1485 0 863 29 1481 103 2215 31
301 102 844 117 885 7 19 7 18 88 -285 317 -1185 752 -2524 1240 -3815 140
-370 438 -1115 442 -1103 2 5 -26 144 -61 309 -273 1264 -476 2603 -591 3896
-29 324 -70 920 -81 1167 l-7 164 39 -23 c21 -13 161 -102 309 -197z m-1088
-665 c-3 -8 -6 -5 -6 6 -1 11 2 17 5 13 3 -3 4 -12 1 -19z m3391 -2073 l113
-120 -6 -90 c-21 -314 -58 -664 -95 -915 -40 -263 -84 -501 -91 -488 -3 7 -18
96 -32 198 -65 462 -87 757 -94 1245 l-6 400 49 -55 c27 -30 100 -109 162
-175z m350 -343 c138 -129 408 -359 540 -461 l82 -63 0 -125 c0 -283 -47 -733
-126 -1210 -37 -228 -277 -1450 -286 -1458 -2 -2 -123 -46 -270 -99 -147 -53
-309 -111 -359 -131 -208 -80 -304 -153 -372 -282 -32 -61 -43 -73 -75 -84
-20 -7 -108 -41 -196 -76 -87 -35 -160 -62 -161 -61 -2 2 37 92 86 200 284
634 544 1389 704 2042 153 628 244 1202 290 1839 4 48 9 87 11 87 3 0 62 -53
132 -118z m17366 -137 c-81 -363 -352 -1417 -368 -1433 -4 -3 -75 -9 -159 -14
-669 -34 -966 -64 -967 -97 0 -3 -4 -12 -9 -20 -7 -11 -17 -7 -49 20 -22 19
-62 42 -89 52 -56 20 -187 37 -290 37 -40 0 -73 3 -73 8 1 4 87 64 193 133
431 284 865 603 1267 933 151 123 502 429 539 470 14 14 25 25 27 23 1 -1 -9
-51 -22 -112z m1016 -860 c-17 -131 -42 -308 -55 -394 -14 -86 -25 -160 -25
-165 0 -8 -287 -2 -296 6 -1 2 87 185 196 406 110 222 201 408 201 415 1 7 4
2 6 -9 2 -12 -10 -129 -27 -259z m-11010 -1201 c-1790 -296 -2687 -463 -3625
-678 -1181 -270 -2349 -613 -3440 -1011 -447 -163 -521 -202 -602 -323 -74
-110 -93 -199 -112 -547 -59 -1031 -59 -2623 0 -3548 6 -98 10 -180 7 -182 -6
-7 -94 659 -138 1045 -114 1008 -167 1858 -157 2545 9 700 57 850 304 967 104
49 512 203 853 323 2138 749 4667 1272 7035 1454 219 17 194 8 -125 -45z
m10324 -1564 c65 -10 89 -27 116 -80 l17 -35 -83 -315 c-147 -552 -232 -838
-275 -916 -95 -175 -267 -372 -383 -443 -31 -19 -58 -32 -61 -30 -2 2 -13 353
-24 779 -19 730 -18 829 5 903 22 73 102 123 217 136 102 12 401 13 471 1z
m-11474 -818 c94 -32 165 -66 175 -82 11 -18 -14 -38 -97 -82 -98 -51 -165
-111 -240 -214 -211 -294 -433 -758 -779 -1631 -68 -172 -124 -311 -125 -310
-11 10 662 2130 697 2199 25 49 92 117 139 141 47 24 121 17 230 -21z m2555
-1181 c73 -7 61 -9 -1050 -111 -418 -38 -861 -80 -985 -93 -124 -14 -227 -23
-229 -21 -2 2 7 32 20 68 28 77 2 69 269 90 410 34 884 61 1195 69 215 6 723
4 780 -2z m-3735 -358 c-12 -37 -26 -71 -29 -76 -4 -4 -119 -27 -257 -52
-1024 -186 -1432 -311 -1697 -520 -31 -25 -89 -88 -127 -140 -72 -98 -115
-131 -156 -121 -63 16 -80 159 -30 259 36 75 94 123 218 185 311 154 724 278
1318 397 174 35 774 142 779 139 1 -2 -7 -33 -19 -71z m-303 -2295 c-3 -8 -6
-5 -6 6 -1 11 2 17 5 13 3 -3 4 -12 1 -19z m-5130 -130 c-3 -7 -5 -2 -5 12 0
14 2 19 5 13 2 -7 2 -19 0 -25z"/>
<path d="M2623 33687 c-508 -971 -1053 -2330 -1483 -3702 -87 -276 -96 -298
-180 -450 -303 -550 -604 -1160 -859 -1742 l-101 -230 1 -1614 1 -1614 24 170
c349 2478 1011 5078 1891 7425 226 603 509 1286 732 1769 39 85 70 156 68 158
-2 1 -44 -75 -94 -170z"/>
<path d="M16975 25360 c3 -14 15 -59 26 -100 17 -61 21 -110 23 -265 2 -190 2
-190 31 -245 17 -30 51 -76 77 -101 88 -87 190 -99 396 -49 68 17 135 30 150
31 24 1 23 2 -8 9 -19 5 -90 4 -159 -1 -220 -17 -303 18 -373 154 -18 35 -21
62 -23 187 -2 119 -6 155 -24 204 -24 67 -58 127 -96 171 -26 29 -26 29 -20 5z"/>
<path d="M14540 16215 c-41 -97 -49 -243 -19 -360 44 -172 171 -396 303 -536
40 -42 83 -52 106 -24 20 24 5 55 -67 140 -133 156 -204 275 -252 421 -32 100
-55 280 -45 357 4 26 4 47 0 47 -4 0 -15 -20 -26 -45z"/>
<path d="M17852 12325 c-18 -44 -42 -179 -42 -239 0 -91 37 -253 75 -325 20
-39 19 -48 -2 -29 -30 27 -213 138 -295 179 -611 307 -1077 212 -1298 -265
-59 -126 -57 -138 5 -51 87 120 141 180 221 245 139 111 280 163 444 163 153
0 292 -36 487 -128 152 -72 266 -140 558 -334 138 -91 254 -168 259 -170 23
-10 -66 98 -137 166 -85 81 -125 140 -163 242 -49 129 -75 269 -92 486 -7 84
-8 88 -20 60z"/>
</g>
</svg>
